<svg width="1919" height="1079" viewBox="0 0 1919 1079" fill="none" xmlns="http://www.w3.org/2000/svg">
<path d="M979 0.5C1333.3 216.943 693.652 855.912 979 1077.5H1920.5V0.5H979Z" fill="#023E7D" stroke="black"/>
<path d="M1617.49 445.88C1617.49 445.88 1718.49 361.25 1740.95 318.58C1763.41 275.91 1792 239.14 1792 239.14" stroke="#535461" stroke-width="2" stroke-miterlimit="10"/>
<path d="M1778.72 334.53L1735.03 324.68C1735.03 324.68 1745.34 370.76 1778.72 334.53Z" fill="#0466C8"/>
<path d="M1711.96 287.49L1737.1 325.14C1737.1 325.14 1687.95 328.69 1711.96 287.49Z" fill="#0466C8"/>
<path d="M1795.91 299.14L1755.98 292.14C1755.98 292.14 1781.06 330.29 1795.91 299.14Z" fill="#0466C8"/>
<path d="M1736.82 265.49L1756.49 291.25C1756.49 291.25 1721.67 294.55 1736.82 265.49Z" fill="#0466C8"/>
<path d="M1776.63 260.36C1776.63 260.36 1810.63 261.98 1814.63 265.23C1818.63 268.48 1809.56 287.53 1796.63 284.42C1783.7 281.31 1776.63 260.36 1776.63 260.36Z" fill="#0466C8"/>
<path d="M1763.04 229.97C1763.04 229.97 1776.93 255.28 1776.41 260.1C1775.89 264.92 1755.24 270.33 1751.07 252.1C1746.9 233.87 1763.04 229.97 1763.04 229.97Z" fill="#0466C8"/>
<path d="M1806.23 249.301C1807.81 244.321 1805.05 239.01 1800.07 237.438C1795.09 235.866 1789.78 238.627 1788.2 243.607C1786.63 248.586 1789.39 253.897 1794.37 255.469C1799.35 257.041 1804.66 254.28 1806.23 249.301Z" fill="#FFD037"/>
<path d="M1791.43 239.571C1793.01 234.592 1790.24 229.281 1785.27 227.708C1780.29 226.136 1774.98 228.898 1773.4 233.877C1771.83 238.856 1774.59 244.167 1779.57 245.74C1784.55 247.312 1789.86 244.55 1791.43 239.571Z" fill="#FFD037"/>
<path d="M1302.46 777.63C1302.46 777.63 1318.67 729.41 1215.91 671.28C1215.91 671.28 1111.57 640.85 1122.24 536.35C1122.24 536.35 1001.96 624.47 1083.35 736.72C1164.74 848.97 1234.99 824.47 1234.99 824.47L1302.46 777.63Z" fill="#0466C8"/>
<path d="M1271.13 799.41C1271.13 799.41 1220.99 745.22 1172.93 724.27C1163.33 719.949 1154.51 714.073 1146.82 706.88C1116.18 678.88 1102.82 636.63 1110.72 595.88L1122.27 536.35" stroke="#535461" stroke-width="2" stroke-miterlimit="10"/>
<path d="M1716.68 172.2H1146.07V834.73H1716.68V172.2Z" fill="url(#paint0_linear)"/>
<path d="M1710.04 179.91H1152.72V827H1710.04V179.91Z" fill="#F7F7FD"/>
<path d="M1327.27 252.85H1186.38V264.07H1327.27V252.85Z" fill="#E2E2EC"/>
<path d="M1427.01 280.28H1186.38V291.5H1427.01V280.28Z" fill="#E2E2EC"/>
<path d="M1683.35 242.13H1583.36V328.41H1683.35V242.13Z" fill="white"/>
<path d="M1682.82 242.63V327.91H1583.82V242.63H1682.82ZM1683.82 241.63H1582.82V328.91H1683.82V241.63Z" fill="#E2E2EC"/>
<path d="M1582.36 242.13H1482.37V328.41H1582.36V242.13Z" fill="white"/>
<path d="M1581.82 242.63V327.91H1482.82V242.63H1581.82ZM1582.82 241.63H1481.82V328.91H1582.82V241.63Z" fill="#E2E2EC"/>
<path d="M1683.35 329.41H1583.36V415.69H1683.35V329.41Z" fill="white"/>
<path d="M1682.82 329.91V415.19H1583.82V329.91H1682.82ZM1683.82 328.91H1582.82V416.19H1683.82V328.91Z" fill="#E2E2EC"/>
<path d="M1582.36 329.41H1482.37V415.69H1582.36V329.41Z" fill="white"/>
<path d="M1581.82 329.91V415.19H1482.82V329.91H1581.82ZM1582.82 328.91H1481.82V416.19H1582.82V328.91Z" fill="#E2E2EC"/>
<path d="M1481.37 329.41H1381.38V415.69H1481.37V329.41Z" fill="white"/>
<path d="M1480.87 329.91V415.19H1381.87V329.91H1480.87ZM1481.87 328.91H1380.87V416.19H1481.87V328.91Z" fill="#E2E2EC"/>
<path d="M1380.38 329.41H1280.39V415.69H1380.38V329.41Z" fill="white"/>
<path d="M1379.88 329.91V415.19H1280.88V329.91H1379.88ZM1380.88 328.91H1279.88V416.19H1380.88V328.91Z" fill="#E2E2EC"/>
<path d="M1279.39 329.41H1179.4V415.69H1279.39V329.41Z" fill="white"/>
<path d="M1278.89 329.91V415.19H1179.89V329.91H1278.89ZM1279.89 328.91H1178.89V416.19H1279.89V328.91Z" fill="#E2E2EC"/>
<path d="M1683.35 416.68H1583.36V502.96H1683.35V416.68Z" fill="white"/>
<path d="M1682.82 417.19V502.47H1583.82V417.19H1682.82ZM1683.82 416.19H1582.82V503.47H1683.82V416.19Z" fill="#E2E2EC"/>
<path d="M1582.36 416.68H1482.37V502.96H1582.36V416.68Z" fill="white"/>
<path d="M1581.82 417.19V502.47H1482.82V417.19H1581.82ZM1582.82 416.19H1481.82V503.47H1582.82V416.19Z" fill="#E2E2EC"/>
<path d="M1481.37 416.68H1381.38V502.96H1481.37V416.68Z" fill="white"/>
<path d="M1480.87 417.19V502.47H1381.87V417.19H1480.87ZM1481.87 416.19H1380.87V503.47H1481.87V416.19Z" fill="#E2E2EC"/>
<path d="M1380.38 416.68H1280.39V502.96H1380.38V416.68Z" fill="white"/>
<path d="M1379.88 417.19V502.47H1280.88V417.19H1379.88ZM1380.88 416.19H1279.88V503.47H1380.88V416.19Z" fill="#E2E2EC"/>
<path d="M1279.39 416.68H1179.4V502.96H1279.39V416.68Z" fill="white"/>
<path d="M1278.89 417.19V502.47H1179.89V417.19H1278.89ZM1279.89 416.19H1178.89V503.47H1279.89V416.19Z" fill="#E2E2EC"/>
<path d="M1683.35 503.96H1583.36V590.24H1683.35V503.96Z" fill="white"/>
<path d="M1682.82 504.46V589.74H1583.82V504.46H1682.82ZM1683.82 503.46H1582.82V590.74H1683.82V503.46Z" fill="#E2E2EC"/>
<path d="M1582.36 503.96H1482.37V590.24H1582.36V503.96Z" fill="white"/>
<path d="M1581.82 504.46V589.74H1482.82V504.46H1581.82ZM1582.82 503.46H1481.82V590.74H1582.82V503.46Z" fill="#E2E2EC"/>
<path d="M1481.37 503.96H1381.38V590.24H1481.37V503.96Z" fill="white"/>
<path d="M1480.87 504.46V589.74H1381.87V504.46H1480.87ZM1481.87 503.46H1380.87V590.74H1481.87V503.46Z" fill="#E2E2EC"/>
<path d="M1380.38 503.96H1280.39V590.24H1380.38V503.96Z" fill="white"/>
<path d="M1379.88 504.46V589.74H1280.88V504.46H1379.88ZM1380.88 503.46H1279.88V590.74H1380.88V503.46Z" fill="#E2E2EC"/>
<path d="M1279.39 503.96H1179.4V590.24H1279.39V503.96Z" fill="white"/>
<path d="M1278.89 504.46V589.74H1179.89V504.46H1278.89ZM1279.89 503.46H1178.89V590.74H1279.89V503.46Z" fill="#E2E2EC"/>
<path d="M1683.35 591.23H1583.36V677.51H1683.35V591.23Z" fill="white"/>
<path d="M1682.82 591.74V677.01H1583.82V591.74H1682.82ZM1683.82 590.74H1582.82V678.01H1683.82V590.74Z" fill="#E2E2EC"/>
<path d="M1582.36 591.23H1482.37V677.51H1582.36V591.23Z" fill="white"/>
<path d="M1581.82 591.74V677.01H1482.82V591.74H1581.82ZM1582.82 590.74H1481.82V678.01H1582.82V590.74Z" fill="#E2E2EC"/>
<path d="M1481.37 591.23H1381.38V677.51H1481.37V591.23Z" fill="white"/>
<path d="M1480.87 591.74V677.01H1381.87V591.74H1480.87ZM1481.87 590.74H1380.87V678.01H1481.87V590.74Z" fill="#E2E2EC"/>
<path d="M1380.38 591.23H1280.39V677.51H1380.38V591.23Z" fill="white"/>
<path d="M1379.88 591.74V677.01H1280.88V591.74H1379.88ZM1380.88 590.74H1279.88V678.01H1380.88V590.74Z" fill="#E2E2EC"/>
<path d="M1279.39 591.23H1179.4V677.51H1279.39V591.23Z" fill="white"/>
<path d="M1278.89 591.74V677.01H1179.89V591.74H1278.89ZM1279.89 590.74H1178.89V678.01H1279.89V590.74Z" fill="#E2E2EC"/>
<path d="M1683.35 678.51H1583.36V764.79H1683.35V678.51Z" fill="white"/>
<path d="M1682.82 679.01V764.29H1583.82V679.01H1682.82ZM1683.82 678.01H1582.82V765.29H1683.82V678.01Z" fill="#E2E2EC"/>
<path d="M1582.36 678.51H1482.37V764.79H1582.36V678.51Z" fill="white"/>
<path d="M1581.82 679.01V764.29H1482.82V679.01H1581.82ZM1582.82 678.01H1481.82V765.29H1582.82V678.01Z" fill="#E2E2EC"/>
<path d="M1481.37 678.51H1381.38V764.79H1481.37V678.51Z" fill="white"/>
<path d="M1480.87 679.01V764.29H1381.87V679.01H1480.87ZM1481.87 678.01H1380.87V765.29H1481.87V678.01Z" fill="#E2E2EC"/>
<path d="M1380.38 678.51H1280.39V764.79H1380.38V678.51Z" fill="white"/>
<path d="M1379.88 679.01V764.29H1280.88V679.01H1379.88ZM1380.88 678.01H1279.88V765.29H1380.88V678.01Z" fill="#E2E2EC"/>
<path d="M1279.39 678.51H1179.4V764.79H1279.39V678.51Z" fill="white"/>
<path d="M1278.89 679.01V764.29H1179.89V679.01H1278.89ZM1279.89 678.01H1178.89V765.29H1279.89V678.01Z" fill="#E2E2EC"/>
<path d="M1389.42 843.89C1392.28 841.72 1394.97 839.16 1395.8 836.04C1396.23 834.389 1396 832.637 1395.17 831.148C1394.34 829.659 1392.97 828.546 1391.34 828.04C1387.25 826.76 1382.88 829.04 1379.56 831.41C1376.24 833.78 1372.45 836.41 1368.11 835.92C1372.6 832.67 1374.74 827.4 1373.5 822.61C1373.29 821.578 1372.76 820.636 1372 819.91C1369.73 817.91 1365.61 818.78 1362.89 820.34C1354.24 825.34 1351.83 834.89 1351.78 843.52C1350.91 840.41 1351.64 837.17 1351.62 833.97C1351.6 830.77 1350.53 827.24 1347.23 825.52C1345.12 824.604 1342.83 824.164 1340.53 824.23C1336.64 824.11 1332.31 824.43 1329.66 826.75C1326.36 829.63 1327.22 834.47 1330.09 837.64C1332.96 840.81 1337.33 842.8 1341.34 844.99C1344.4 846.66 1347.5 848.61 1349.34 851.25C1349.58 851.6 1349.78 851.975 1349.94 852.37H1374.31C1379.68 850.179 1384.75 847.331 1389.42 843.89V843.89Z" fill="#0466C8"/>
<path d="M1192.59 348.23C1195.74 348.23 1198.29 345.678 1198.29 342.53C1198.29 339.382 1195.74 336.83 1192.59 336.83C1189.44 336.83 1186.89 339.382 1186.89 342.53C1186.89 345.678 1189.44 348.23 1192.59 348.23Z" fill="#FC6681"/>
<path d="M1206.83 348.23C1209.98 348.23 1212.53 345.678 1212.53 342.53C1212.53 339.382 1209.98 336.83 1206.83 336.83C1203.68 336.83 1201.13 339.382 1201.13 342.53C1201.13 345.678 1203.68 348.23 1206.83 348.23Z" fill="#FFD037"/>
<path d="M1393.87 432.73C1397.02 432.73 1399.57 430.178 1399.57 427.03C1399.57 423.882 1397.02 421.33 1393.87 421.33C1390.72 421.33 1388.17 423.882 1388.17 427.03C1388.17 430.178 1390.72 432.73 1393.87 432.73Z" fill="#0466C8"/>
<path d="M1408.12 432.73C1411.27 432.73 1413.82 430.178 1413.82 427.03C1413.82 423.882 1411.27 421.33 1408.12 421.33C1404.97 421.33 1402.42 423.882 1402.42 427.03C1402.42 430.178 1404.97 432.73 1408.12 432.73Z" fill="#0466C8"/>
<path d="M1698.64 596.03C1701.79 596.03 1704.34 593.478 1704.34 590.33C1704.34 587.182 1701.79 584.63 1698.64 584.63C1695.49 584.63 1692.94 587.182 1692.94 590.33C1692.94 593.478 1695.49 596.03 1698.64 596.03Z" fill="#0466C8"/>
<path d="M1701.49 589.39C1704.64 589.39 1707.19 586.838 1707.19 583.69C1707.19 580.542 1704.64 577.99 1701.49 577.99C1698.34 577.99 1695.79 580.542 1695.79 583.69C1695.79 586.838 1698.34 589.39 1701.49 589.39Z" fill="#0466C8"/>
<path d="M1704.34 583.69C1707.49 583.69 1710.04 581.138 1710.04 577.99C1710.04 574.842 1707.49 572.29 1704.34 572.29C1701.19 572.29 1698.64 574.842 1698.64 577.99C1698.64 581.138 1701.19 583.69 1704.34 583.69Z" fill="#0466C8"/>
<path d="M1598 348.23C1601.15 348.23 1603.7 345.678 1603.7 342.53C1603.7 339.382 1601.15 336.83 1598 336.83C1594.85 336.83 1592.3 339.382 1592.3 342.53C1592.3 345.678 1594.85 348.23 1598 348.23Z" fill="#0466C8"/>
<path d="M1612.24 348.23C1615.39 348.23 1617.94 345.678 1617.94 342.53C1617.94 339.382 1615.39 336.83 1612.24 336.83C1609.09 336.83 1606.54 339.382 1606.54 342.53C1606.54 345.678 1609.09 348.23 1612.24 348.23Z" fill="#0466C8"/>
<path d="M1626.49 348.23C1629.64 348.23 1632.19 345.678 1632.19 342.53C1632.19 339.382 1629.64 336.83 1626.49 336.83C1623.34 336.83 1620.79 339.382 1620.79 342.53C1620.79 345.678 1623.34 348.23 1626.49 348.23Z" fill="#0466C8"/>
<path d="M1640.73 348.23C1643.88 348.23 1646.43 345.678 1646.43 342.53C1646.43 339.382 1643.88 336.83 1640.73 336.83C1637.58 336.83 1635.03 339.382 1635.03 342.53C1635.03 345.678 1637.58 348.23 1640.73 348.23Z" fill="#0466C8"/>
<path d="M1598 524.82C1601.15 524.82 1603.7 522.268 1603.7 519.12C1603.7 515.972 1601.15 513.42 1598 513.42C1594.85 513.42 1592.3 515.972 1592.3 519.12C1592.3 522.268 1594.85 524.82 1598 524.82Z" fill="#0466C8"/>
<path d="M1612.24 524.82C1615.39 524.82 1617.94 522.268 1617.94 519.12C1617.94 515.972 1615.39 513.42 1612.24 513.42C1609.09 513.42 1606.54 515.972 1606.54 519.12C1606.54 522.268 1609.09 524.82 1612.24 524.82Z" fill="#0466C8"/>
<path d="M1626.49 524.82C1629.64 524.82 1632.19 522.268 1632.19 519.12C1632.19 515.972 1629.64 513.42 1626.49 513.42C1623.34 513.42 1620.79 515.972 1620.79 519.12C1620.79 522.268 1623.34 524.82 1626.49 524.82Z" fill="#0466C8"/>
<path d="M1640.73 524.82C1643.88 524.82 1646.43 522.268 1646.43 519.12C1646.43 515.972 1643.88 513.42 1640.73 513.42C1637.58 513.42 1635.03 515.972 1635.03 519.12C1635.03 522.268 1637.58 524.82 1640.73 524.82Z" fill="#0466C8"/>
<path d="M1293.23 432.73C1296.38 432.73 1298.93 430.178 1298.93 427.03C1298.93 423.882 1296.38 421.33 1293.23 421.33C1290.08 421.33 1287.53 423.882 1287.53 427.03C1287.53 430.178 1290.08 432.73 1293.23 432.73Z" fill="#FFD037"/>
<path d="M1192.59 519.13C1195.74 519.13 1198.29 516.578 1198.29 513.43C1198.29 510.282 1195.74 507.73 1192.59 507.73C1189.44 507.73 1186.89 510.282 1186.89 513.43C1186.89 516.578 1189.44 519.13 1192.59 519.13Z" fill="#FC6681"/>
<path d="M1693.72 604.63C1699.97 608.32 1709.72 610.72 1722.07 602.79L1721.95 620.35C1722.83 632.35 1737.72 676.26 1737.72 676.26L1748.22 712.36C1755.74 737.863 1759.63 764.301 1759.76 790.89C1759.76 799.7 1760.58 808.78 1763.11 815.61C1768.7 830.72 1760.91 850.19 1757.53 857.44C1751.84 859.362 1746.06 860.991 1740.2 862.32C1739.67 862.441 1739.16 862.598 1738.65 862.79L1738.58 862.69C1738.58 862.69 1722.82 868.94 1715.82 868.08C1710.6 867.44 1707.33 873.95 1711.42 878.74C1707.56 879.74 1703.6 880.45 1700.93 880.12C1693.93 879.26 1690.42 891.3 1703.56 894.74C1716.7 898.18 1791.15 894.74 1791.15 894.74C1793.24 893.692 1794.93 891.978 1795.94 889.868C1796.96 887.757 1797.24 885.369 1796.75 883.08C1802.47 882.86 1806.04 882.69 1806.04 882.69C1806.04 882.69 1819.18 876.69 1806.04 860.32L1805.34 860.85L1802.53 852.58V841.41C1802.53 841.41 1819.17 761.41 1813.92 751.95C1808.67 742.49 1806.04 694.32 1806.04 694.32L1807.82 641.85C1812.57 632.05 1815 616.69 1816.23 604.68C1818.02 598.95 1819.14 593.035 1819.59 587.05C1819.8 584.23 1819.97 581.27 1820.08 578.2C1820.12 571.466 1819.02 564.774 1816.82 558.41C1821.82 551.21 1829.95 540.08 1836.66 533.5C1847.17 523.18 1844.54 511.13 1844.54 511.13L1840.16 481.88L1829.65 431.99C1830.97 418.15 1828.08 410.18 1824.89 405.68C1825.65 401.21 1826.36 396.74 1826.89 392.25C1829.22 372.725 1828.18 352.944 1823.82 333.77C1822.3 327.08 1820.23 320.22 1815.54 315.15C1810.23 309.41 1801.61 305.91 1799.63 298.39C1799.14 296.52 1799.12 294.53 1798.41 292.73C1796.49 287.81 1790.41 286.02 1785.09 285.38C1775.61 284.23 1761.9 283.38 1752.79 287.08C1746.43 289.68 1737.67 296.84 1734.19 304.52C1732.19 308.05 1731.26 311.76 1732.11 315.25C1732.45 316.536 1732.95 317.77 1733.62 318.92C1732.26 322.598 1731.57 326.489 1731.58 330.41C1731.61 337.15 1733.67 343.724 1737.49 349.276C1741.31 354.829 1746.72 359.102 1753 361.54C1753.21 362.2 1753.4 362.85 1753.56 363.49C1753.96 365.031 1754.25 366.598 1754.42 368.18C1754.25 371.18 1754.06 374.27 1753.92 377.32C1753.82 377.74 1753.71 378.153 1753.6 378.56C1746.07 381.895 1738.72 385.641 1731.6 389.78C1736.86 397.52 1730.72 430.21 1730.72 430.21C1717.58 437.95 1704.44 457.74 1718.46 478.38C1732.48 499.02 1724.59 521.38 1724.59 521.38L1722.4 555.01V555.07L1721.96 561.8H1722.13L1721.96 564.35L1722.34 564.42V567.16C1716.19 569.42 1707.2 573.98 1701.84 582.41C1699.31 586.557 1696.22 590.341 1692.67 593.66C1691.85 594.366 1691.22 595.257 1690.82 596.258C1690.42 597.259 1690.26 598.342 1690.36 599.416C1690.47 600.49 1690.83 601.523 1691.41 602.43C1691.99 603.338 1692.79 604.092 1693.72 604.63ZM1799.48 515.27C1798.95 509.452 1800.03 503.6 1802.59 498.35C1804.65 498.39 1806.71 498.413 1808.78 498.42C1808.99 499.87 1809.24 501.25 1809.54 502.51C1811.32 510.09 1804.21 513.72 1799.47 515.26L1799.48 515.27Z" fill="url(#paint1_linear)"/>
<path d="M1801.21 848.66L1804.58 858.77L1793.58 869.77L1757.34 878.2L1731.21 875.67L1732.9 866.4C1733.4 864.407 1734.44 862.59 1735.9 861.149C1737.37 859.708 1739.2 858.698 1741.2 858.23C1751.94 855.71 1772.42 849.95 1776.72 841.96L1801.21 848.66Z" fill="#DB8B8B"/>
<path opacity="0.1" d="M1801.21 848.66L1804.58 858.77L1793.58 869.77L1757.34 878.2L1731.21 875.67L1732.9 866.4C1733.4 864.407 1734.44 862.59 1735.9 861.149C1737.37 859.708 1739.2 858.698 1741.2 858.23C1751.94 855.71 1772.42 849.95 1776.72 841.96L1801.21 848.66Z" fill="black"/>
<path d="M1739.68 873.1L1744.74 866.36L1739.68 858.55C1739.68 858.55 1724.51 864.67 1717.77 863.83C1711.03 862.99 1707.66 874.83 1720.3 878.16C1732.94 881.49 1804.58 878.16 1804.58 878.16C1804.58 878.16 1817.22 872.26 1804.58 856.25L1793.58 864.68C1793.58 864.68 1775.04 874.79 1765.77 873.11L1739.68 873.1Z" fill="#2E3037"/>
<path d="M1716.92 887.41L1743.05 889.94L1779.29 881.51L1790.29 870.51L1789.4 867.83L1788.14 864.07L1786.88 860.41L1762.44 853.67C1761.19 855.708 1759.48 857.421 1757.44 858.67C1749.5 864.1 1735.24 868.02 1726.87 869.98C1726.53 870.063 1726.2 870.167 1725.87 870.29C1724.1 870.886 1722.5 871.918 1721.23 873.291C1719.97 874.665 1719.06 876.336 1718.61 878.15L1716.92 887.41Z" fill="#DB8B8B"/>
<path opacity="0.1" d="M1716.92 887.41L1743.05 889.94L1779.29 881.51L1790.29 870.51L1789.4 867.83L1779.34 875.57C1779.34 875.57 1760.8 885.68 1751.53 884H1725.35L1730.41 877.26L1725.87 870.26C1724.1 870.855 1722.5 871.888 1721.23 873.261C1719.97 874.635 1719.06 876.306 1718.61 878.12L1716.92 887.41Z" fill="black"/>
<path d="M1725.35 884.9L1730.41 878.16L1725.35 870.35C1725.35 870.35 1710.18 876.47 1703.44 875.63C1696.7 874.79 1693.33 886.63 1705.97 889.96C1718.61 893.29 1790.25 889.96 1790.25 889.96C1790.25 889.96 1802.89 884.06 1790.25 868.05L1779.25 876.48C1779.25 876.48 1760.71 886.59 1751.44 884.91L1725.35 884.9Z" fill="#2E3037"/>
<path d="M1746.42 396.07C1746.42 396.07 1786.88 400.28 1780.98 383.43C1779.33 378.652 1778.9 373.537 1779.73 368.55C1780.78 362.367 1783.22 356.506 1786.88 351.41L1748.95 357.31C1751.22 361.111 1752.95 365.21 1754.09 369.49C1758.61 387.36 1746.42 396.07 1746.42 396.07Z" fill="#DB8B8B"/>
<path d="M1815.53 588.23C1815.53 588.23 1814.69 624.47 1806.26 642.17L1804.57 693.58C1804.57 693.58 1807.1 740.78 1812.16 750.05C1817.22 759.32 1801.16 837.7 1801.16 837.7V851.19C1801.16 851.19 1774.16 861.3 1766.6 849.5L1774.19 749.2L1770.82 610.14L1815.53 588.23Z" fill="#474463"/>
<path opacity="0.1" d="M1815.53 588.23C1815.53 588.23 1814.69 624.47 1806.26 642.17L1804.57 693.58C1804.57 693.58 1807.1 740.78 1812.16 750.05C1817.22 759.32 1801.16 837.7 1801.16 837.7V851.19C1801.16 851.19 1774.16 861.3 1766.6 849.5L1774.19 749.2L1770.82 610.14L1815.53 588.23Z" fill="black"/>
<path d="M1832.39 471.92L1837.45 485.41L1841.66 514.07C1842.23 518.062 1841.84 522.133 1840.52 525.944C1839.2 529.754 1836.99 533.195 1834.07 535.98C1823.96 546.09 1810.47 567.16 1810.47 567.16L1794.47 519.16C1794.47 519.16 1810.47 516.63 1807.96 505.67C1805.45 494.71 1806.26 474.41 1806.26 474.41L1832.39 471.92Z" fill="#FC6681"/>
<path opacity="0.05" d="M1832.39 471.92L1837.45 485.41L1841.66 514.07C1842.23 518.062 1841.84 522.133 1840.52 525.944C1839.2 529.754 1836.99 533.195 1834.07 535.98C1823.96 546.09 1810.47 567.16 1810.47 567.16L1794.47 519.16C1794.47 519.16 1810.47 516.63 1807.96 505.67C1805.45 494.71 1806.26 474.41 1806.26 474.41L1832.39 471.92Z" fill="black"/>
<path opacity="0.1" d="M1757.48 858.68C1768.29 875.68 1785.12 866.05 1788.1 864.13L1786.88 860.41L1762.44 853.67C1761.2 855.707 1759.5 857.424 1757.48 858.68V858.68Z" fill="black"/>
<path d="M1723.67 621.1C1724.51 632.9 1738.84 675.88 1738.84 675.88L1748.95 711.25C1756.19 736.259 1759.93 762.153 1760.06 788.19C1760.06 796.82 1760.85 805.72 1763.29 812.41C1770.03 830.95 1756.55 856.24 1756.55 856.24C1768.35 877.31 1788.55 862.98 1788.55 862.98V849.5C1788.55 849.5 1804.55 776.17 1800.35 761.85C1796.15 747.53 1794.45 708.75 1794.45 708.75V638.75C1807.95 625.297 1816.16 607.436 1817.58 588.43C1817.78 585.67 1817.94 582.77 1818.05 579.76C1818.73 560.76 1805.73 538.45 1800.65 530.51C1799.43 528.59 1798.65 527.51 1798.65 527.51L1724.23 557.03L1724.06 557.1V559.98V566.35L1723.67 621.1Z" fill="#474463"/>
<path opacity="0.1" d="M1748.95 357.3C1751.22 361.101 1752.95 365.2 1754.09 369.48C1758.21 371.043 1762.6 371.765 1767.01 371.604C1771.41 371.442 1775.74 370.401 1779.73 368.54C1780.78 362.361 1783.23 356.503 1786.88 351.41L1748.95 357.3Z" fill="black"/>
<path d="M1765.81 369.93C1783.96 369.93 1798.68 355.214 1798.68 337.06C1798.68 318.906 1783.96 304.19 1765.81 304.19C1747.66 304.19 1732.94 318.906 1732.94 337.06C1732.94 355.214 1747.66 369.93 1765.81 369.93Z" fill="#DB8B8B"/>
<path opacity="0.1" d="M1723.67 566.32L1724.03 566.39C1759.37 573.66 1803.74 536.82 1803.74 536.82C1802.55 534.815 1801.52 532.719 1800.67 530.55C1799.45 528.63 1798.67 527.55 1798.67 527.55L1724.25 557.07L1724.06 560.02L1723.67 566.32Z" fill="black"/>
<path d="M1732.94 395.22C1732.94 395.22 1780.14 366.56 1795.31 378.36L1816.38 405.36C1816.38 405.36 1829.87 409.57 1827.38 436.54L1837.45 485.41L1807.11 493C1807.11 493 1789.41 509.86 1803.74 534.3C1803.74 534.3 1759.07 571.38 1723.67 563.8L1726.2 524.19C1726.2 524.19 1733.79 502.28 1720.3 482.05C1706.81 461.82 1719.46 442.44 1732.1 434.85C1732.1 434.84 1737.99 402.81 1732.94 395.22Z" fill="#FC6681"/>
<path d="M1730.41 567.16C1730.41 567.16 1712.71 570.53 1704.28 584.02C1701.85 588.066 1698.88 591.766 1695.46 595.02C1694.69 595.718 1694.09 596.586 1693.72 597.554C1693.34 598.523 1693.2 599.566 1693.29 600.6C1693.39 601.635 1693.73 602.632 1694.28 603.514C1694.83 604.396 1695.57 605.137 1696.46 605.68C1703.15 609.68 1714.06 612.17 1727.84 600.85C1751.48 581.49 1730.41 567.16 1730.41 567.16Z" fill="#DB8B8B"/>
<path opacity="0.1" d="M1756.54 411.24C1756.54 411.24 1773.4 409.55 1777.61 453.38C1781.82 497.21 1788.61 507.32 1788.61 507.32C1788.61 507.32 1792.82 530.08 1782.71 543.56C1772.6 557.04 1753.21 585.7 1753.21 585.7C1753.21 585.7 1732.14 591.6 1727.93 570.53L1754.06 521.65C1754.06 521.65 1758.27 504.79 1748.16 492.99C1738.05 481.19 1730.41 402.81 1756.54 411.24Z" fill="black"/>
<path d="M1754.82 408.71C1754.82 408.71 1771.68 407.02 1775.89 450.85C1780.1 494.68 1786.89 504.79 1786.89 504.79C1786.89 504.79 1791.1 527.55 1780.99 541.03C1770.88 554.51 1751.49 583.17 1751.49 583.17C1751.49 583.17 1730.42 589.07 1726.21 568L1752.34 519.12C1752.34 519.12 1756.55 502.26 1746.44 490.46C1736.33 478.66 1728.72 400.28 1754.82 408.71Z" fill="#FC6681"/>
<path opacity="0.1" d="M1740.94 440.31C1740.94 440.31 1739.26 466.41 1746.82 480.77C1754.38 495.13 1754.41 513.64 1746.82 523.77" fill="black"/>
<path opacity="0.1" d="M1736.73 408.29C1736.73 408.29 1743.47 401.55 1762.86 400.7C1782.25 399.85 1790.67 393.96 1790.67 393.96" fill="black"/>
<path opacity="0.1" d="M1783.61 294.59C1788.73 295.22 1794.61 296.98 1796.43 301.79C1797.11 303.56 1797.13 305.51 1797.6 307.34C1799.51 314.7 1807.8 318.13 1812.91 323.76C1817.42 328.76 1819.41 335.45 1820.91 342C1825.12 360.783 1826.13 380.14 1823.91 399.26C1822.27 413.26 1818.91 427 1817.97 441.04C1817.03 455.08 1818.75 469.85 1826.42 481.65C1829.72 486.72 1834.08 491.18 1836.42 496.76C1831.59 500.68 1824.92 501.24 1818.69 501.45C1811.44 501.697 1804.19 501.697 1796.94 501.45C1793.14 501.32 1789.17 501.07 1785.89 499.15C1783.46 497.597 1781.47 495.453 1780.09 492.92C1775.94 485.92 1774.9 477.42 1775.09 469.26C1775.28 461.1 1776.56 452.98 1776.71 444.81C1776.79 440.36 1776.44 435.63 1773.88 431.99C1772.03 429.36 1769.22 427.59 1766.82 425.46C1757.82 417.46 1754.7 404.64 1754.4 392.59C1754.1 380.54 1756.09 368.47 1755.07 356.46C1754.67 351.76 1752.91 346.11 1748.29 345.2C1746.83 344.91 1745.29 345.2 1743.89 344.64C1740.18 343.21 1740.54 337.98 1739.48 334.15C1738.29 329.85 1734.62 326.53 1733.59 322.15C1731.16 311.95 1744.14 299.78 1752.65 296.23C1761.3 292.61 1774.49 293.47 1783.61 294.59Z" fill="black"/>
<path d="M1784.45 292.91C1789.57 293.54 1795.45 295.3 1797.27 300.11C1797.95 301.88 1797.97 303.83 1798.44 305.66C1800.35 313.02 1808.64 316.45 1813.75 322.08C1818.26 327.08 1820.25 333.77 1821.75 340.32C1825.96 359.103 1826.97 378.46 1824.75 397.58C1823.11 411.58 1819.75 425.32 1818.81 439.36C1817.87 453.4 1819.59 468.17 1827.26 479.97C1830.56 485.04 1834.92 489.5 1837.26 495.08C1832.43 499 1825.76 499.56 1819.53 499.77C1812.28 500.017 1805.03 500.017 1797.78 499.77C1793.98 499.64 1790.01 499.39 1786.73 497.47C1784.3 495.917 1782.31 493.773 1780.93 491.24C1776.78 484.24 1775.74 475.74 1775.93 467.58C1776.12 459.42 1777.4 451.3 1777.55 443.13C1777.63 438.68 1777.28 433.95 1774.72 430.31C1772.87 427.68 1770.06 425.91 1767.66 423.78C1758.66 415.78 1755.54 402.96 1755.24 390.91C1754.94 378.86 1756.93 366.79 1755.91 354.78C1755.51 350.08 1753.75 344.43 1749.13 343.52C1747.67 343.23 1746.13 343.52 1744.73 342.96C1741.02 341.53 1741.38 336.3 1740.32 332.47C1739.13 328.17 1735.46 324.85 1734.43 320.47C1732 310.27 1744.98 298.1 1753.49 294.55C1762.14 290.92 1775.33 291.78 1784.45 292.91Z" fill="#472727"/>
<path d="M371 1079.5C160.2 1051.55 70.5494 996.984 1 776.5V1079.5H371Z" fill="#023E7D" stroke="black"/>
<defs>
<linearGradient id="paint0_linear" x1="1431.38" y1="834.72" x2="1431.38" y2="172.2" gradientUnits="userSpaceOnUse">
<stop stop-color="#808080" stop-opacity="0.25"/>
<stop offset="0.54" stop-color="#808080" stop-opacity="0.12"/>
<stop offset="1" stop-color="#808080" stop-opacity="0.1"/>
</linearGradient>
<linearGradient id="paint1_linear" x1="-280637" y1="493986" x2="-280637" y2="119587" gradientUnits="userSpaceOnUse">
<stop stop-color="#808080" stop-opacity="0.25"/>
<stop offset="0.54" stop-color="#808080" stop-opacity="0.12"/>
<stop offset="1" stop-color="#808080" stop-opacity="0.1"/>
</linearGradient>
</defs>
</svg>
