<svg width="1920" height="1078" viewBox="0 0 1920 1078" fill="none" xmlns="http://www.w3.org/2000/svg">
<path d="M942.156 1078.05C587.725 861.819 1226.98 222.46 941.5 1.04595L7.3564e-05 1.61931L0.655944 1078.62L942.156 1078.05Z" fill="#023E7D" stroke="black"/>
<path d="M1921.26 702.03C1892.59 912.734 1837.72 1002.2 1617 1071L1920 1072.03L1921.26 702.03Z" fill="#023E7D" stroke="black"/>
<g clip-path="url(#clip0)">
<path d="M760.139 294.728H102.671V715.383H760.139V294.728Z" fill="#3F3D56"/>
<path d="M741.443 370.68H445.427V714.993H741.443V370.68Z" fill="#F2F2F2"/>
<path d="M76.1399 691.843C85.1371 708.529 104.233 715.692 104.233 715.692C104.233 715.692 108.741 695.802 99.7433 679.116C90.746 662.43 71.6506 655.267 71.6506 655.267C71.6506 655.267 67.1426 675.158 76.1399 691.843Z" fill="#3F3D56"/>
<path d="M82.3242 686.354C98.5679 696.127 104.824 715.538 104.824 715.538C104.824 715.538 84.7436 719.105 68.4998 709.332C52.256 699.559 46 680.148 46 680.148C46 680.148 66.0804 676.581 82.3242 686.354Z" fill="#0466C8"/>
<path d="M725.084 402.717H545.55V409.957H725.084V402.717Z" fill="white"/>
<path d="M725.084 418.644H545.55V425.883H725.084V418.644Z" fill="white"/>
<path d="M606.359 434.57H545.55V441.81H606.359V434.57Z" fill="white"/>
<path d="M356.416 620.056H176.882V627.295H356.416V620.056Z" fill="white"/>
<path d="M356.416 635.982H176.882V643.221H356.416V635.982Z" fill="white"/>
<path d="M237.692 651.908H176.882V659.148H237.692V651.908Z" fill="white"/>
<path d="M683.018 491.522H503.484V498.762H683.018V491.522Z" fill="white"/>
<path d="M683.018 507.449H503.484V514.688H683.018V507.449Z" fill="white"/>
<path d="M683.018 523.029H503.484V530.268H683.018V523.029Z" fill="white"/>
<path d="M683.018 538.608H503.484V545.848H683.018V538.608Z" fill="white"/>
<path d="M683.018 554.188H503.484V561.427H683.018V554.188Z" fill="white"/>
<path d="M683.018 569.768H503.484V577.007H683.018V569.768Z" fill="white"/>
<path d="M683.018 585.348H503.484V592.587H683.018V585.348Z" fill="white"/>
<path d="M683.018 600.927H503.484V608.167H683.018V600.927Z" fill="white"/>
<path d="M683.018 616.507H503.484V623.747H683.018V616.507Z" fill="white"/>
<path d="M683.018 632.087H503.484V639.326H683.018V632.087Z" fill="white"/>
<path d="M683.018 647.667H503.484V654.906H683.018V647.667Z" fill="white"/>
<path d="M332.068 504.947C332.079 514.7 329.904 524.331 325.702 533.133C321.5 541.935 315.378 549.683 307.787 555.807C304.98 558.087 301.986 560.128 298.837 561.906C296.936 562.986 294.981 563.966 292.979 564.843C286.343 567.772 279.262 569.565 272.032 570.148C270.256 570.296 268.461 570.369 266.649 570.366C263.063 570.37 259.483 570.076 255.946 569.486C254.699 569.291 253.468 569.05 252.253 568.769C250.129 568.297 248.031 567.714 245.967 567.024C237.48 564.194 229.666 559.649 223.01 553.672C221.295 552.152 219.67 550.535 218.141 548.827C211.018 540.952 205.92 531.461 203.286 521.174C200.652 510.888 200.562 500.114 203.023 489.785C205.485 479.456 210.424 469.881 217.414 461.887C224.404 453.894 233.235 447.723 243.144 443.906C253.053 440.09 263.742 438.743 274.288 439.982C284.834 441.221 294.92 445.009 303.674 451.018C312.429 457.027 319.589 465.078 324.536 474.473C329.483 483.869 332.068 494.328 332.068 504.947Z" fill="#0466C8"/>
<path d="M526.691 431.969C526.784 452.907 514.369 460.273 499.015 460.341C498.659 460.342 498.304 460.34 497.951 460.334C497.239 460.321 496.535 460.292 495.838 460.246C481.976 459.326 471.175 451.688 471.089 432.216C470.999 412.064 496.642 386.518 498.565 384.629L498.568 384.627C498.641 384.555 498.679 384.519 498.679 384.519C498.679 384.519 526.599 411.032 526.691 431.969Z" fill="#0466C8"/>
<path d="M497.989 457.142L508.094 442.89L497.971 458.702L497.951 460.334C497.239 460.321 496.535 460.292 495.838 460.246L496.84 439.294L496.831 439.132L496.85 439.101L496.945 437.121L486.656 421.361L496.969 435.638L496.997 436.058L497.754 420.228L488.933 403.933L497.849 417.446L498.565 384.629L498.568 384.52L498.569 384.627L498.54 410.505L507.202 400.208L498.512 412.733L498.345 426.906L506.419 413.27L498.322 428.989L498.229 436.87L509.949 417.887L498.195 439.619L497.989 457.142Z" fill="#3F3D56"/>
<path d="M759.749 478.96C730.825 478.96 703.086 490.45 682.633 510.902C662.181 531.354 650.691 559.094 650.691 588.018V588.018C650.691 596.489 647.326 604.612 641.336 610.602C635.347 616.592 627.223 619.957 618.752 619.957H565.781C553.3 619.957 540.942 622.415 529.412 627.191C517.881 631.967 507.405 638.967 498.58 647.792C489.755 656.617 482.754 667.094 477.978 678.624C473.202 690.155 470.744 702.513 470.744 714.993V714.993H759.749V478.96H759.749Z" fill="#3F3D56"/>
<path d="M438.026 294.728H424.005V715.383H438.026V294.728Z" fill="#2F2E41"/>
<path d="M295.082 288.497V277.591C295.078 271.602 292.697 265.859 288.461 261.625C284.224 257.392 278.48 255.014 272.491 255.014C266.502 255.014 260.758 257.392 256.522 261.625C252.286 265.859 249.904 271.602 249.901 277.591V288.497H207.056V312.645H337.926V288.497H295.082ZM272.491 261.232C275.11 261.232 277.671 262.009 279.849 263.464C282.026 264.919 283.724 266.987 284.726 269.407C285.728 271.827 285.991 274.489 285.48 277.058C284.969 279.627 283.707 281.987 281.855 283.839C280.003 285.691 277.644 286.952 275.075 287.463C272.506 287.974 269.843 287.712 267.423 286.71C265.004 285.707 262.935 284.01 261.48 281.832C260.025 279.654 259.248 277.094 259.248 274.475C259.248 272.736 259.591 271.014 260.257 269.407C260.922 267.8 261.897 266.34 263.127 265.111C264.357 263.881 265.817 262.905 267.423 262.24C269.03 261.574 270.752 261.232 272.491 261.232Z" fill="#0466C8"/>
<path d="M278.265 500.63C278.265 500.63 271.758 519.149 275.763 521.999C279.767 524.848 262.248 548.116 262.248 548.116L241.226 542.418L252.738 522.948C252.738 522.948 254.24 503.479 254.24 500.63C254.24 497.781 278.265 500.63 278.265 500.63Z" fill="#FFB8B8"/>
<path opacity="0.1" d="M278.265 500.63C278.265 500.63 271.758 519.149 275.763 521.999C279.767 524.848 262.248 548.116 262.248 548.116L241.226 542.418L252.738 522.948C252.738 522.948 254.24 503.479 254.24 500.63C254.24 497.781 278.265 500.63 278.265 500.63Z" fill="black"/>
<path d="M264.969 514.401C274.41 514.401 282.064 506.747 282.064 497.306C282.064 487.865 274.41 480.211 264.969 480.211C255.528 480.211 247.874 487.865 247.874 497.306C247.874 506.747 255.528 514.401 264.969 514.401Z" fill="#FFB8B8"/>
<path d="M252.253 568.769C250.129 568.297 248.031 567.714 245.967 567.024L249.239 544.589L250.251 537.672L255.439 539.619C256.14 539.877 256.935 540.18 257.846 540.515C258.543 540.788 259.288 540.915 260.036 540.888C260.784 540.861 261.518 540.681 262.193 540.36C267.21 538.061 270.193 529.119 270.193 529.119C270.193 529.119 270.396 531.627 270.661 535.872C271.136 543.327 271.821 556.15 272.032 570.148C270.256 570.296 268.461 570.369 266.649 570.366C263.063 570.37 259.483 570.076 255.946 569.486C254.699 569.291 253.468 569.05 252.253 568.769Z" fill="#D0CDE1"/>
<path d="M256.896 526.275L255.439 539.619L254.73 546.077L252.253 568.769C250.129 568.297 248.031 567.714 245.967 567.024C237.48 564.194 229.666 559.649 223.01 553.672L219.855 542.416C219.872 541.744 219.94 541.075 220.058 540.414C220.057 540.41 220.057 540.405 220.059 540.401C220.06 540.397 220.062 540.394 220.065 540.391C220.158 539.801 220.288 539.219 220.455 538.646C220.459 538.638 220.462 538.631 220.463 538.622C221.021 536.479 222.121 534.516 223.656 532.92C227.458 529.119 252.619 517.247 252.619 517.247L253.094 518.244L256.896 526.275Z" fill="#D0CDE1"/>
<path d="M264.605 473.146C268.395 473.01 272.45 472.943 275.646 474.985C277.116 476.01 278.405 477.273 279.461 478.721C282.573 482.655 285.262 487.605 284.106 492.486L282.764 491.962C282.764 493.265 283.053 494.552 283.612 495.729C283.423 495.179 282.789 496.068 282.959 496.624L284.438 501.476C283.827 501.288 283.183 501.23 282.548 501.306C281.913 501.383 281.301 501.591 280.752 501.919C280.203 502.247 279.729 502.686 279.36 503.209C278.992 503.731 278.737 504.325 278.612 504.953C278.443 499.317 277.859 492.854 273.287 489.555C270.981 487.89 268.064 487.382 265.256 486.931C262.667 486.515 259.952 486.118 257.471 486.971C254.99 487.823 252.878 490.36 253.44 492.922C252.849 492.789 252.23 492.863 251.686 493.131C251.142 493.399 250.707 493.845 250.452 494.395C249.973 495.511 249.763 496.724 249.84 497.936C248.621 498.798 247.233 497.087 246.736 495.679C245.57 492.374 244.533 488.856 245.162 485.409C245.79 481.961 248.599 478.666 252.104 478.654C251.679 478.187 251.452 477.573 251.471 476.941L254.359 476.697C253.626 476.593 252.952 476.238 252.452 475.692C253.611 476.968 262.73 473.213 264.605 473.146Z" fill="#2F2E41"/>
<path d="M304.383 538.622C303.939 542.182 301.399 552.239 298.836 561.906C296.936 562.986 294.981 563.966 292.978 564.843C286.342 567.772 279.262 569.565 272.031 570.148C270.255 570.296 268.461 570.369 266.649 570.366C263.063 570.37 259.482 570.076 255.945 569.486C257.27 564.376 259.053 555.955 260.72 547.705C261.227 545.213 261.725 542.728 262.193 540.359C264.023 531.027 265.441 523.424 265.441 523.424C265.441 523.424 271.128 517.847 274.501 516.554C274.958 516.35 275.459 516.267 275.958 516.312C278.739 516.772 282.54 523.424 282.54 523.424C282.54 523.424 299.6 529.111 303.588 535.569C304.195 536.465 304.476 537.543 304.383 538.622Z" fill="#D0CDE1"/>
<path d="M232.202 538.622L231.205 559.936C228.311 558.069 225.571 555.975 223.01 553.672C221.295 552.152 219.669 550.535 218.141 548.827C218.959 545.236 219.645 542.213 220.057 540.414C220.057 540.41 220.057 540.406 220.059 540.401C220.06 540.397 220.062 540.394 220.065 540.391C220.283 539.394 220.424 538.778 220.455 538.646C220.459 538.639 220.462 538.631 220.463 538.622H232.202Z" fill="#D0CDE1"/>
<path d="M307.787 555.807C304.98 558.087 301.986 560.128 298.837 561.906C296.936 562.986 294.981 563.966 292.979 564.843L291.086 553.813L292.986 532.92L303.588 535.569L304.383 535.771L307.787 555.807Z" fill="#D0CDE1"/>
<path d="M757.262 592.445C757.262 592.445 749.863 628.614 762.194 625.326C774.524 622.038 769.592 590.801 769.592 590.801L757.262 592.445Z" fill="#A0616A"/>
<path d="M791.787 442.835H783.567C783.567 442.835 774.525 449.411 775.347 456.81C776.169 464.208 760.55 528.326 760.55 536.547C760.55 544.767 757.262 547.233 757.262 552.165C757.262 557.097 758.906 560.385 757.262 562.851C755.618 565.318 752.33 580.114 753.152 585.868C753.63 589.69 753.63 593.555 753.152 597.377H773.702C773.702 597.377 788.499 547.233 791.787 544.767C795.075 542.301 796.719 538.191 796.719 535.724C796.719 533.258 795.075 533.258 799.185 529.97C803.296 526.682 800.829 511.886 800.829 511.886L806.584 497.089L791.787 442.835Z" fill="#D0CDE1"/>
<path opacity="0.1" d="M791.787 442.835H783.567C783.567 442.835 774.525 449.411 775.347 456.81C776.169 464.208 760.55 528.326 760.55 536.547C760.55 544.767 757.262 547.233 757.262 552.165C757.262 557.097 758.906 560.385 757.262 562.851C755.618 565.318 752.33 580.114 753.152 585.868C753.63 589.69 753.63 593.555 753.152 597.377H773.702C773.702 597.377 788.499 547.233 791.787 544.767C795.075 542.301 796.719 538.191 796.719 535.724C796.719 533.258 795.075 533.258 799.185 529.97C803.296 526.682 800.829 511.886 800.829 511.886L806.584 497.089L791.787 442.835Z" fill="black"/>
<path d="M676.703 572.305C676.703 572.305 669.304 608.474 681.635 605.186C693.965 601.898 689.033 570.661 689.033 570.661L676.703 572.305Z" fill="#A0616A"/>
<path d="M679.169 740.821L674.237 761.371L692.321 772.88L697.254 748.219L679.169 740.821Z" fill="#A0616A"/>
<path d="M764.66 766.304L755.618 778.634L766.304 790.965H781.101V766.304H764.66Z" fill="#A0616A"/>
<path d="M783.567 780.278H778.634C776.193 779.782 773.677 779.782 771.236 780.278C766.304 781.101 759.611 773.188 759.611 773.188L753.151 778.634C753.151 778.634 739.999 781.923 746.575 797.541L761.372 806.583C761.372 806.583 768.77 822.202 783.567 819.736C798.363 817.27 787.677 800.829 787.677 800.829L783.567 780.278Z" fill="#2F2E41"/>
<path d="M679.169 751.507L677.918 746.031L666.838 749.041C666.838 749.041 643.822 734.245 643.822 753.974C643.822 773.702 661.906 780.279 661.906 780.279C661.906 780.279 668.482 779.456 668.482 785.211C668.482 790.965 685.745 800.007 692.321 796.719C698.898 793.431 698.898 785.211 698.898 785.211L697.253 762.194L689.855 763.838C689.855 763.838 675.881 763.016 678.347 759.728C680.813 756.44 679.169 751.507 679.169 751.507Z" fill="#2F2E41"/>
<path d="M703.008 562.44C703.008 562.44 693.143 575.593 693.143 582.991C693.143 590.389 689.855 656.152 689.855 656.152C689.855 656.152 671.771 739.999 676.703 744.931C681.635 749.863 696.432 757.262 698.898 754.796C701.364 752.329 718.626 662.728 718.626 662.728L739.177 607.652L758.084 686.567C758.084 686.567 757.262 754.796 760.55 755.618C763.838 756.44 765.482 757.262 763.838 760.55C762.194 763.838 759.728 770.414 759.728 770.414C759.728 770.414 780.279 775.346 784.389 772.058C788.499 768.77 789.321 689.033 784.389 661.084C779.457 633.135 785.211 569.017 785.211 569.017L703.008 562.44Z" fill="#2F2E41"/>
<path d="M733.012 403.378C746.632 403.378 757.673 392.337 757.673 378.717C757.673 365.097 746.632 354.056 733.012 354.056C719.392 354.056 708.351 365.097 708.351 378.717C708.351 392.337 719.392 403.378 733.012 403.378Z" fill="#A0616A"/>
<path d="M725.614 394.335C725.614 394.335 728.902 411.598 725.614 416.53C722.325 421.462 770.003 418.174 770.003 418.174C770.003 418.174 746.986 391.869 749.452 386.937C751.918 382.005 725.614 394.335 725.614 394.335Z" fill="#A0616A"/>
<path d="M704.652 422.695C704.652 422.695 721.093 401.323 741.643 405.433C747.192 406.542 752.26 407.652 756.705 408.681C772.363 412.306 785.385 423.465 790.734 438.622C792.121 442.552 792.815 446.329 792.198 449.411C789.732 461.742 790.965 559.152 790.965 559.152C790.965 559.152 784.389 561.618 785.211 564.907C786.033 568.195 791.787 572.305 786.033 572.305C780.279 572.305 693.144 569.017 694.788 566.551C696.432 564.085 704.652 422.695 704.652 422.695Z" fill="#D0CDE1"/>
<path d="M712.872 422.695H704.652C704.652 422.695 695.609 429.272 696.432 436.67C697.254 444.068 681.635 508.186 681.635 516.407C681.635 524.627 678.347 527.093 678.347 532.025C678.347 536.958 679.991 540.246 678.347 542.712C676.703 545.178 673.415 559.974 674.237 565.729C674.715 569.55 674.715 573.416 674.237 577.237H694.787C694.787 577.237 709.584 527.093 712.872 524.627C716.16 522.161 717.804 518.051 717.804 515.585C717.804 513.119 716.16 513.119 720.27 509.831C724.381 506.542 721.914 491.746 721.914 491.746L727.669 476.949L712.872 422.695Z" fill="#D0CDE1"/>
<path opacity="0.1" d="M700.888 565.466L725.614 511.063L713.251 568.921L700.888 565.466Z" fill="black"/>
<path d="M724.409 341.423L724.422 339.388C726.121 339.172 727.844 339.233 729.523 339.567C729.542 338.339 729.287 337.122 728.777 336.004C730.47 336.227 732.116 336.717 733.655 337.456L734.222 333.676L748.946 338.836C754.231 340.688 759.816 342.751 763.246 347.178C767.071 352.113 767.348 359.019 765.88 365.088C764.412 371.156 761.426 376.731 759.198 382.564C758.385 385.054 757.338 387.462 756.07 389.754C751.619 396.927 741.573 399.487 733.7 396.439C730.795 395.315 728.051 393.439 726.579 390.694C725.825 388.991 725.184 387.24 724.66 385.453C723.291 381.828 721.294 374.246 717.973 372.251C716.511 371.374 714.283 375.142 713.021 373.996C709.778 371.05 709.759 365.903 711.042 361.714C712.252 357.517 713.764 353.412 715.566 349.432C716.339 347.827 724.41 341.179 724.409 341.423Z" fill="#2F2E41"/>
</g>
<defs>
<clipPath id="clip0">
<rect x="46" y="255" width="760.583" height="565" fill="white"/>
</clipPath>
</defs>
</svg>
